PathFileType	4	(X/Y/Z)	Walk5.trc
DataRate	CameraRate	NumFrames	NumMarkers	Units	OrigDataRate	OrigDataStartFrame	OrigNumFrames
200.000000	200.000000	8	69	mm	200.000000	372	453
Frame#	Times		LFHD		RFHD		LBHD		RBHD		C7		CLAV		STRN		RBack		LASI		RASI		LPSI		RPSI		RACR1		RUA1		RElbow		RFA1		RWRR		RWRU		RCAR		LACR1		LUA1		LElbow		LElbowM		LFA1		LWRR		LWRU		LCAR		RTH1		RTH3		RTH2		RTH4		RLFC		RTB1		RTB3		RTB2		RTB4		RLMAL		RMMAL		RCAL		RMT1		RMT5		RToe		LTH1		LTH3		LTH2		LTH4		LLFC		LTB1		LTB3		LTB2		LTB4		LMMAL		LMT1		LMT5		LHJC		LowerBodyModelVer		MidPelvis		OPelvis		PELOrigin		RHJC		SACR		XPelvis		YPelvis		ZPelvis		LToe		T10		LLMAL		LCAL		RElbowM
			X1	Y1	Z1	X2	Y2	Z2	X3	Y3	Z3	X4	Y4	Z4	X5	Y5	Z5	X6	Y6	Z6	X7	Y7	Z7	X8	Y8	Z8	X9	Y9	Z9	X10	Y10	Z10	X11	Y11	Z11	X12	Y12	Z12	X13	Y13	Z13	X14	Y14	Z14	X15	Y15	Z15	X16	Y16	Z16	X17	Y17	Z17	X18	Y18	Z18	X19	Y19	Z19	X20	Y20	Z20	X21	Y21	Z21	X22	Y22	Z22	X23	Y23	Z23	X24	Y24	Z24	X25	Y25	Z25	X26	Y26	Z26	X27	Y27	Z27	X28	Y28	Z28	X29	Y29	Z29	X30	Y30	Z30	X31	Y31	Z31	X32	Y32	Z32	X33	Y33	Z33	X34	Y34	Z34	X35	Y35	Z35	X36	Y36	Z36	X37	Y37	Z37	X38	Y38	Z38	X39	Y39	Z39	X40	Y40	Z40	X41	Y41	Z41	X42	Y42	Z42	X43	Y43	Z43	X44	Y44	Z44	X45	Y45	Z45	X46	Y46	Z46	X47	Y47	Z47	X48	Y48	Z48	X49	Y49	Z49	X50	Y50	Z50	X51	Y51	Z51	X52	Y52	Z52	X53	Y53	Z53	X54	Y54	Z54	X55	Y55	Z55	X56	Y56	Z56	X57	Y57	Z57	X58	Y58	Z58	X59	Y59	Z59	X60	Y60	Z60	X61	Y61	Z61	X62	Y62	Z62	X63	Y63	Z63	X64	Y64	Z64	X65	Y65	Z65	X66	Y66	Z66	X67	Y67	Z67	X68	Y68	Z68	X69	Y69	Z69

372	1.86	664.11	1583.4	-90.274	685.74	1581	1.7455	508.6	1533.4	-85.02	541.05	1529.8	53.009	492.02	1399.6	-22.317	633.06	1325.3	-31.078	696.91	1223.1	-25.152	443.27	1304.7	86.21	709.02	953.35	-144.18	683.37	962.02	140.8	447.77	942.87	-56.34	445.49	945.32	33.219	570.88	1362.6	127.15	555.49	1185.1	230.32	505.65	1066.6	261.95	520.52	920.66	287.37	614.83	829	266.97	552.57	815.37	301.44	620.79	782.44	323	563.99	1354.1	-186.07	534.35	1169.8	-270.89	480.1	1049.4	-288.11	460.52	1025.2	-210.29	456.41	918.03	-308.67	507.66	793.84	-282.1	452.15	802.76	-326.25	500.3	745.9	-324.01	596.42	717.42	207.25	560.14	554.96	166.77	630.24	631.72	160.79	576.25	635.72	184.05	534.31	469.87	146.99	471.91	313.71	76.155	338.47	204.24	70.302	389	276.22	128.88	405.19	258.98	73.229	227.03	154.94	92.806	245.93	151.16	12.487	165.57	181.63	53.027	272.35	46.345	27.49	244.78	57.253	99.114	317.38	22.234	61.866	639.39	745.14	-220.03	692.39	591.9	-164.69	718.65	693.78	-179.39	665.12	670.3	-187.63	731.04	480.06	-129.17	793.25	343.93	-51.486	786.02	171.74	-56.615	770.1	258.32	-110.54	789.14	257.23	-52.387	760.93	63.982	-0.46869	864.1	29.883	-16.046	835.84	24.361	-95.975	642.52	859.54	-101.3	9	2014	4	571.41	950.89	-6.6248	696.19	957.68	-1.689	696.19	957.68	-1.689	625.07	865.44	92.478	446.63	944.09	-11.561	775.76	962.15	5.3388	691.96	1037.5	-4.4979	689.02	960.11	77.952	934.11	24.786	-41.17	429.04	1130.6	-18.488	750.79	60.364	-85.394	686.45	31.121	-52.496	502.59	1030.3	169.73
373	1.865	669.66	1584.1	-91.185	691.22	1581.9	0.84495	514.05	1534.4	-85.929	546.38	1531	52.115	497.33	1400.4	-23.149	638.45	1326.4	-31.596	702.53	1224.4	-25.722	448.64	1305.7	85.544	715.15	954.96	-144.56	688.96	962.91	140.08	453.65	943.87	-56.766	451.26	945.94	32.84	576.15	1363.7	126.44	560.72	1186.2	229.57	510.54	1067.7	261.07	524.73	921.7	286.35	618.35	829.54	265.79	556.19	816.29	300.41	624.23	782.77	321.66	569.72	1355	-186.65	541.07	1170.5	-271.45	487.3	1049.9	-288.82	467.46	1025.7	-211.05	464.25	918.4	-309.38	515.66	794.47	-282.31	460.51	803.2	-327.04	508.68	746.35	-324.1	604.11	717.77	206.51	570.23	554.54	167.06	639.19	632.34	160.45	585.12	635.65	183.78	545.28	469.26	147.66	481.95	313.47	77.513	346.78	206.05	71.046	398.01	277.46	129.68	414.37	259.76	74.279	234.3	158.47	92.962	253.95	154.11	12.881	174.27	187.17	52.429	275.69	47.843	27.419	248.33	59.617	98.547	318.49	22.289	61.911	645.4	746.46	-220.81	696.53	592.63	-165.4	723.88	694.22	-179.82	670.16	671.33	-188.35	734.03	480.23	-129.74	795.29	343.65	-52.074	786.8	171.5	-56.905	771.33	258.09	-110.93	790.53	256.97	-52.833	760.96	64.064	-0.49482	864.04	29.93	-16.027	835.81	24.401	-96.045	648.81	861.03	-102.08	9	2014	4	577.25	951.92	-7.101	702.05	958.93	-2.2386	702.05	958.93	-2.2386	631	866.43	91.479	452.45	944.91	-11.963	781.6	963.54	4.9516	697.67	1038.8	-4.8704	694.73	961.16	77.394	934.12	24.714	-41.185	434.76	1131.3	-19.056	750.96	60.212	-85.403	686.39	31.133	-52.617	507.45	1031.7	168.78
374	1.87	675.21	1584.8	-92.07	696.68	1582.7	-0.030837	519.49	1535.4	-86.808	551.7	1532.3	51.251	502.63	1401.2	-23.936	643.8	1327.5	-32.068	708.11	1225.7	-26.247	453.97	1306.8	84.905	721.2	956.55	-144.95	694.45	963.79	139.44	459.5	944.9	-57.254	456.97	946.58	32.397	581.37	1364.9	125.78	565.95	1187.3	228.84	515.43	1068.8	260.24	528.95	922.74	285.38	621.82	830.09	264.6	559.83	817.2	299.42	627.69	783.1	320.3	575.42	1355.8	-187.18	547.8	1171.2	-271.99	494.52	1050.4	-289.53	474.4	1026.2	-211.83	472.16	918.79	-310.11	523.79	795.15	-282.53	469	803.67	-327.84	517.23	746.84	-324.19	611.74	718.22	205.79	580.28	554.25	167.37	648.11	633.05	160.2	593.94	635.68	183.53	556.22	468.78	148.33	492.18	313.3	78.917	355.38	207.87	71.842	407.25	278.75	130.5	423.78	260.58	75.38	241.93	161.93	93.167	262.29	156.97	13.312	183.31	192.52	51.907	279.55	49.493	27.38	252.39	62.049	98.02	320.16	22.417	61.993	651.34	747.75	-221.58	700.53	593.32	-166.12	729.01	694.62	-180.22	675.1	672.33	-189.08	736.86	480.38	-130.31	797.17	343.37	-52.595	787.52	171.28	-57.159	772.52	257.86	-111.3	791.8	256.72	-53.228	760.97	64.144	-0.53349	863.97	29.991	-16.021	835.78	24.437	-96.103	654.99	862.47	-102.84	9	2014	4	583.03	952.96	-7.5907	707.83	960.17	-2.7532	707.83	960.17	-2.7532	636.8	867.4	90.539	458.23	945.74	-12.428	787.35	964.9	4.6059	703.31	1040	-5.2117	700.34	962.2	76.87	934.1	24.69	-41.206	440.44	1132.1	-19.616	751.14	60.045	-85.412	686.32	31.14	-52.739	512.3	1033.1	167.87
375	1.875	680.73	1585.5	-92.928	702.13	1583.6	-0.88015	524.9	1536.4	-87.653	557	1533.6	50.418	507.9	1402	-24.675	649.12	1328.6	-32.495	713.65	1227.1	-26.726	459.28	1307.7	84.289	727.18	958.09	-145.33	699.85	964.66	138.87	465.31	945.95	-57.804	462.63	947.26	31.889	586.55	1366	125.16	571.17	1188.4	228.16	520.3	1069.9	259.46	533.19	923.78	284.45	625.26	830.63	263.39	563.48	818.11	298.47	631.16	783.4	318.93	581.11	1356.7	-187.67	554.52	1172	-272.5	501.76	1051	-290.24	481.33	1026.8	-212.63	480.15	919.2	-310.85	532.05	795.88	-282.76	477.62	804.16	-328.65	525.93	747.39	-324.3	619.28	718.77	205.11	590.26	554.08	167.69	656.97	633.88	160.04	602.69	635.84	183.31	567.11	468.42	148.99	502.58	313.21	80.346	364.25	209.69	72.68	416.69	280.07	131.33	433.41	261.45	76.513	249.9	165.29	93.418	270.95	159.76	13.772	192.66	197.65	51.472	283.97	51.283	27.384	256.99	64.541	97.551	322.47	22.637	62.116	657.21	749	-222.34	704.4	593.97	-166.82	734.02	694.96	-180.59	679.94	673.3	-189.81	739.53	480.51	-130.9	798.89	343.09	-53.041	788.18	171.05	-57.37	773.69	257.63	-111.63	792.97	256.47	-53.565	760.97	64.218	-0.58259	863.9	30.058	-16.027	835.75	24.47	-96.15	661.05	863.87	-103.6	9	2014	4	588.74	953.99	-8.0936	713.51	961.38	-3.2295	713.51	961.38	-3.2295	642.47	868.33	89.665	463.97	946.6	-12.958	793.01	966.21	4.3039	708.88	1041.2	-5.5209	705.86	963.22	76.382	934.07	24.699	-41.23	446.09	1132.8	-20.168	751.32	59.865	-85.419	686.25	31.144	-52.861	517.14	1034.4	167.01
376	1.88	686.24	1586.2	-93.757	707.56	1584.5	-1.7014	530.3	1537.4	-88.464	562.28	1534.8	49.618	513.15	1402.9	-25.365	654.4	1329.7	-32.878	719.16	1228.4	-27.156	464.55	1308.7	83.692	733.08	959.58	-145.72	705.15	965.52	138.39	471.1	947	-58.418	468.23	947.97	31.314	591.69	1367.1	124.59	576.37	1189.4	227.52	525.17	1071	258.72	537.44	924.8	283.57	628.67	831.16	262.18	567.15	819	297.57	634.66	783.69	317.54	586.77	1357.6	-188.11	561.25	1172.8	-273	509.01	1051.6	-290.97	488.25	1027.3	-213.46	488.21	919.64	-311.61	540.43	796.65	-282.99	486.36	804.66	-329.47	534.79	747.99	-324.41	626.71	719.43	204.45	600.13	554.05	168	665.76	634.81	159.98	611.34	636.11	183.1	577.91	468.2	149.62	513.14	313.22	81.781	373.36	211.52	73.546	426.34	281.45	132.16	443.25	262.37	77.664	258.21	168.57	93.71	279.9	162.46	14.251	202.26	202.52	51.135	289.01	53.197	27.439	262.19	67.08	97.154	325.51	22.968	62.288	663	750.21	-223.1	708.17	594.59	-167.52	738.93	695.26	-180.93	684.68	674.24	-190.53	742.08	480.61	-131.49	800.47	342.8	-53.407	788.8	170.84	-57.535	774.84	257.4	-111.93	794.04	256.22	-53.84	760.95	64.283	-0.64025	863.82	30.126	-16.044	835.72	24.497	-96.189	667	865.2	-104.33	9	2014	4	594.39	955.02	-8.6085	719.12	962.55	-3.665	719.12	962.55	-3.665	648.01	869.24	88.863	469.66	947.48	-13.552	798.59	967.47	4.0468	714.38	1042.4	-5.7978	711.29	964.21	75.934	934.03	24.731	-41.252	451.7	1133.6	-20.712	751.5	59.677	-85.423	686.17	31.145	-52.983	521.96	1035.7	166.19
377	1.885	691.72	1586.9	-94.555	712.97	1585.4	-2.493	535.68	1538.3	-89.24	567.56	1536.1	48.853	518.38	1403.7	-26.004	659.65	1330.8	-33.22	724.64	1229.7	-27.538	469.79	1309.6	83.113	738.91	961.01	-146.09	710.36	966.35	137.97	476.85	948.06	-59.093	473.77	948.7	30.671	596.79	1368.2	124.08	581.56	1190.5	226.92	530.03	1072	258.03	541.71	925.8	282.74	632.07	831.69	260.97	570.85	819.88	296.72	638.19	783.96	316.14	592.41	1358.5	-188.52	567.97	1173.6	-273.47	516.28	1052.2	-291.69	495.16	1027.9	-214.3	496.34	920.08	-312.37	548.92	797.46	-283.23	495.23	805.18	-330.28	543.8	748.64	-324.54	634.02	720.18	203.82	609.88	554.16	168.29	674.45	635.84	160.02	619.89	636.5	182.9	588.63	468.13	150.22	523.83	313.33	83.204	382.72	213.35	74.425	436.17	282.87	132.97	453.28	263.34	78.815	266.85	171.73	94.035	289.12	165.09	14.737	212.1	207.12	50.902	294.71	55.213	27.555	268.03	69.648	96.843	329.38	23.428	62.517	668.69	751.37	-223.84	711.85	595.18	-168.21	743.73	695.51	-181.23	689.33	675.13	-191.25	744.53	480.7	-132.07	801.92	342.52	-53.695	789.38	170.63	-57.654	775.98	257.17	-112.19	795.01	255.97	-54.053	760.92	64.34	-0.7049	863.74	30.191	-16.07	835.68	24.519	-96.222	672.84	866.47	-105.03	9	2014	4	599.97	956.03	-9.1343	724.64	963.68	-4.0573	724.64	963.68	-4.0573	653.43	870.1	88.136	475.31	948.38	-14.211	804.09	968.67	3.8353	719.82	1043.5	-6.0429	716.64	965.17	75.528	933.97	24.777	-41.272	457.28	1134.3	-21.25	751.68	59.49	-85.425	686.08	31.147	-53.103	526.77	1037	165.41
378	1.89	697.19	1587.6	-95.321	718.37	1586.3	-3.2535	541.04	1539.3	-89.978	572.82	1537.4	48.123	523.6	1404.5	-26.593	664.88	1331.8	-33.523	730.09	1231	-27.871	475	1310.5	82.548	744.67	962.35	-146.45	715.49	967.16	137.64	482.57	949.12	-59.827	479.26	949.45	29.962	601.86	1369.3	123.62	586.71	1191.5	226.36	534.88	1073.1	257.38	545.99	926.77	281.95	635.47	832.21	259.77	574.58	820.74	295.92	641.74	784.22	314.74	598.03	1359.4	-188.89	574.69	1174.4	-273.93	523.56	1052.8	-292.43	502.06	1028.5	-215.16	504.54	920.55	-313.15	557.54	798.31	-283.47	504.21	805.71	-331.09	552.96	749.34	-324.68	641.2	721.03	203.23	619.48	554.4	168.57	683.04	636.98	160.15	628.31	637	182.73	599.24	468.19	150.76	534.64	313.56	84.602	392.32	215.19	75.303	446.18	284.35	133.76	463.48	264.37	79.952	275.8	174.79	94.384	298.6	167.65	15.219	222.11	211.4	50.773	301.12	57.31	27.743	274.56	72.222	96.629	334.16	24.026	62.81	674.28	752.47	-224.55	715.44	595.73	-168.87	748.43	695.72	-181.5	693.89	675.99	-191.96	746.88	480.77	-132.64	803.25	342.24	-53.913	789.91	170.42	-57.73	777.11	256.94	-112.42	795.91	255.74	-54.209	760.88	64.39	-0.77522	863.67	30.251	-16.106	835.65	24.536	-96.249	678.57	867.66	-105.69	9	2014	4	605.5	957.02	-9.6689	730.08	964.75	-4.4052	730.08	964.75	-4.4052	658.73	870.93	87.489	480.91	949.29	-14.933	809.51	969.79	3.6695	725.2	1044.6	-6.2569	721.9	966.1	75.165	933.91	24.831	-41.289	462.82	1135.1	-21.783	751.85	59.312	-85.426	686	31.148	-53.22	531.56	1038.3	164.68
379	1.895	702.63	1588.3	-96.053	723.75	1587.2	-3.9813	546.39	1540.3	-90.679	578.07	1538.6	47.429	528.8	1405.4	-27.131	670.08	1332.9	-33.79	735.51	1232.3	-28.153	480.18	1311.4	81.996	750.36	963.61	-146.79	720.54	967.94	137.38	488.25	950.18	-60.614	484.7	950.22	29.189	606.9	1370.4	123.22	591.83	1192.4	225.85	539.72	1074.1	256.78	550.29	927.72	281.2	638.88	832.71	258.58	578.36	821.58	295.17	645.32	784.46	313.35	603.62	1360.3	-189.22	581.4	1175.3	-274.36	530.85	1053.5	-293.17	508.94	1029.1	-216.05	512.81	921.03	-313.93	566.26	799.21	-283.72	513.3	806.26	-331.9	562.26	750.09	-324.84	648.24	721.96	202.67	628.93	554.78	168.82	691.5	638.2	160.37	636.6	637.62	182.57	609.75	468.39	151.26	545.57	313.91	85.962	402.14	217.03	76.168	456.36	285.88	134.52	473.85	265.47	81.065	285.07	177.71	94.747	308.31	170.15	15.687	232.27	215.34	50.747	308.27	59.46	28.011	281.8	74.776	96.52	339.91	24.767	63.18	679.77	753.51	-225.24	718.97	596.25	-169.52	753.02	695.89	-181.74	698.37	676.81	-192.66	749.17	480.83	-133.2	804.48	341.97	-54.069	790.41	170.22	-57.767	778.23	256.71	-112.62	796.74	255.51	-54.316	760.84	64.435	-0.85013	863.59	30.303	-16.151	835.61	24.549	-96.275	684.19	868.77	-106.31	9	2014	4	610.96	957.99	-10.21	735.45	965.78	-4.7075	735.45	965.78	-4.7075	663.92	871.72	86.923	486.47	950.2	-15.712	814.86	970.85	3.5488	730.53	1045.6	-6.4414	727.1	966.99	74.846	933.85	24.886	-41.301	468.33	1135.9	-22.31	751.99	59.148	-85.429	685.91	31.151	-53.334	536.33	1039.4	164
